<svg width="221" height="214" viewBox="0 0 221 214" fill="none" xmlns="http://www.w3.org/2000/svg">
<path d="M5.72827 114.527C5.72827 52.0831 56.5035 1.46255 118.947 1.46255C172.797 1.46255 216.585 45.1167 216.585 98.9669V116.574C216.585 169.453 173.719 212.319 120.84 212.319H103.521C49.5115 212.319 5.72827 168.536 5.72827 114.527Z" fill="#C46440"/>
<path d="M149.362 61.9997C153.975 61.9997 157.995 62.6594 161.422 63.9772C164.848 65.2951 167.682 67.1403 169.923 69.5124C172.427 72.1482 174.14 75.5756 175.062 79.7927C175.985 84.01 176.446 89.2167 176.446 95.4108V118.345H176.437V126.255C176.484 132.61 172.14 145.664 154.952 147.372C154.807 147.386 154.662 147.4 154.52 147.416C151.057 147.529 148.326 147.645 146.326 147.758C150.716 147.3 154.108 142.843 155.982 140.968C157.832 137.696 158.644 134.949 158.644 129.414V118.345H158.653V91.0612C158.653 86.9759 158.39 83.2191 157.863 79.7927C157.336 76.3664 156.018 73.5985 153.909 71.4899C151.8 69.3814 148.373 68.3259 143.629 68.3259C138.489 68.326 133.876 69.908 129.79 73.071C125.836 76.234 122.673 80.5173 120.301 85.9206C118.826 89.4769 117.839 93.3198 117.335 97.447V97.8503C117.327 97.783 117.318 97.7152 117.311 97.6481C117.303 97.7152 117.293 97.783 117.285 97.8503V97.447C116.781 93.3198 115.795 89.4768 114.32 85.9206C111.948 80.5173 108.784 76.234 104.83 73.071C100.744 69.9081 96.1311 68.3259 90.9912 68.3259C86.2469 68.326 82.8196 69.3813 80.7109 71.4899C78.6026 73.5985 77.285 76.3665 76.7578 79.7927C76.2307 83.2191 75.9668 86.9759 75.9668 91.0612V147.406C75.0489 154.094 70.1432 164.323 55.4844 166.077C54.8025 166.11 54.1174 166.147 53.4297 166.186C49.457 166.3 46.3635 166.415 44.1504 166.529C49.0787 166.019 52.9495 161.867 54.8135 159.465C56.8018 156.902 58.1738 153.73 58.1738 148.195V95.4108C58.1739 89.2168 58.6351 84.01 59.5576 79.7927C60.4802 75.5756 62.1934 72.1482 64.6973 69.5124C66.9377 67.1402 69.7727 65.2952 73.1992 63.9772C76.6258 62.6594 80.6462 61.9997 85.2588 61.9997C91.5848 61.9998 97.7794 63.7138 103.842 67.1403C109.375 70.1474 113.863 75.5706 117.311 83.4079C120.758 75.5707 125.245 70.1474 130.778 67.1403C136.841 63.7136 143.036 61.9998 149.362 61.9997ZM117.808 121.958C117.808 127.72 122.48 132.391 128.242 132.391H129.076V133.194H128.242C122.48 133.194 117.808 137.866 117.808 143.629V147.441H116.973V143.629C116.972 137.866 112.301 133.194 106.538 133.194H105.494V132.391H106.538C112.301 132.391 116.972 127.72 116.973 121.958V118.345H117.808V121.958Z" fill="white"/>
</svg>
