<svg width="600" height="214" viewBox="0 0 600 214" fill="none" xmlns="http://www.w3.org/2000/svg">
<path d="M5.72827 114.428C5.72827 51.9845 56.5035 1.36389 118.947 1.36389V1.36389C172.797 1.36389 216.585 45.0181 216.585 98.8683V116.476C216.585 169.354 173.719 212.221 120.84 212.221H103.521C49.5115 212.221 5.72827 168.437 5.72827 114.428V114.428Z" fill="#C46440"/>
<path d="M149.362 61.901C153.975 61.901 157.995 62.5607 161.422 63.8785C164.848 65.1964 167.682 67.0416 169.923 69.4137C172.427 72.0495 174.14 75.4769 175.062 79.694C175.985 83.9113 176.446 89.118 176.446 95.3121V118.247H176.437V126.156C176.484 132.511 172.14 145.566 154.952 147.273C154.807 147.288 154.662 147.302 154.52 147.317C151.057 147.43 148.326 147.546 146.326 147.66C150.716 147.201 154.108 142.744 155.982 140.87C157.832 137.597 158.644 134.85 158.644 129.315V118.247H158.653V90.9625C158.653 86.8772 158.39 83.1205 157.863 79.694C157.336 76.2677 156.018 73.4998 153.909 71.3912C151.8 69.2827 148.373 68.2272 143.629 68.2272C138.489 68.2273 133.876 69.8093 129.79 72.9723C125.836 76.1353 122.673 80.4186 120.301 85.8219C118.826 89.3782 117.839 93.2211 117.335 97.3483V97.7516C117.327 97.6844 117.318 97.6165 117.311 97.5494C117.303 97.6165 117.293 97.6843 117.285 97.7516V97.3483C116.781 93.2211 115.795 89.3781 114.32 85.8219C111.948 80.4186 108.784 76.1353 104.83 72.9723C100.744 69.8094 96.1311 68.2272 90.9912 68.2272C86.2469 68.2273 82.8196 69.2826 80.7109 71.3912C78.6026 73.4998 77.285 76.2678 76.7578 79.694C76.2307 83.1205 75.9668 86.8772 75.9668 90.9625V147.307C75.0489 153.996 70.1432 164.225 55.4844 165.978C54.8025 166.012 54.1174 166.048 53.4297 166.088C49.457 166.201 46.3635 166.317 44.1504 166.43C49.0787 165.92 52.9495 161.768 54.8135 159.366C56.8018 156.803 58.1738 153.632 58.1738 148.096V95.3121C58.1739 89.1181 58.6351 83.9113 59.5576 79.694C60.4802 75.4769 62.1934 72.0495 64.6973 69.4137C66.9377 67.0415 69.7727 65.1965 73.1992 63.8785C76.6258 62.5607 80.6462 61.901 85.2588 61.901C91.5848 61.9011 97.7794 63.6151 103.842 67.0416C109.375 70.0487 113.863 75.4719 117.311 83.3092C120.758 75.472 125.245 70.0487 130.778 67.0416C136.841 63.615 143.036 61.9011 149.362 61.901ZM117.808 121.859C117.808 127.621 122.48 132.292 128.242 132.293H129.076V133.095H128.242C122.48 133.096 117.808 137.768 117.808 143.53V147.342H116.973V143.53C116.972 137.767 112.301 133.095 106.538 133.095H105.494V132.293H106.538C112.301 132.292 116.972 127.621 116.973 121.859V118.247H117.808V121.859Z" fill="white"/>
<path d="M273.626 138.559V135.751C278.439 135.751 281.246 134.86 282.048 133.077V87.8898C276.523 87.4441 273.715 87.2213 273.626 87.2213V84.1464C275.319 84.1464 278.617 83.2106 283.519 81.3389C288.51 79.3781 292.031 78.3977 294.081 78.3977V84.4138C298.804 80.4031 303.751 78.3977 308.92 78.3977C319.616 78.3977 326.478 80.9824 329.509 86.1518C334.5 80.9824 340.07 78.3977 346.22 78.3977C361.193 78.3977 368.68 83.478 368.68 93.6385V133.077C369.482 134.86 372.29 135.751 377.103 135.751V138.559H348.225V135.751C353.038 135.751 355.846 134.86 356.648 133.077V98.585C356.648 92.7918 355.801 88.7365 354.108 86.4192C352.414 84.1019 349.518 82.9432 345.418 82.9432C340.159 82.9432 335.302 85.0823 330.846 89.3604C331.202 90.519 331.38 91.9451 331.38 93.6385V133.077C332.183 134.86 334.99 135.751 339.803 135.751V138.559H310.926V135.751C315.739 135.751 318.546 134.86 319.348 133.077V98.585C319.348 92.7918 318.502 88.7365 316.808 86.4192C315.115 84.1019 312.218 82.9432 308.118 82.9432C303.038 82.9432 298.359 84.904 294.081 88.8256V133.077C294.883 134.86 297.69 135.751 302.503 135.751V138.559H273.626Z" fill="black"/>
<path d="M431.681 96.3123C431.681 99.0752 430.522 101.348 428.205 103.131C425.977 104.824 421.075 106.205 413.499 107.275L387.697 110.751C387.697 117.435 389.212 123.14 392.242 127.863C395.362 132.498 399.283 134.815 404.007 134.815C410.18 134.815 415.662 132.993 420.455 129.35C431.681 119.119 431.681 117.282 438.931 108.099V111.772C435.634 115.961 424.187 133.389 415.47 137.747C410.747 140.109 407.074 141.945 398.415 141.158C391.909 141.158 386.36 137.979 381.547 134.147C376.823 130.314 374.461 123.986 374.461 115.163C374.461 104.557 377.402 95.7775 383.285 88.8256C389.167 81.8737 397.233 78.3977 407.483 78.3977C415.772 78.3977 421.877 80.2694 425.798 84.0127C429.72 87.667 431.681 91.7668 431.681 96.3123ZM387.964 106.606L407.884 103.933C415.727 102.952 419.649 99.7883 419.649 94.4406C419.649 91.4103 418.579 88.6474 416.44 86.1518C414.39 83.6562 411.003 82.4085 406.28 82.4085C402.625 82.4085 398.927 84.6812 395.183 89.2267C391.529 93.7722 389.123 99.5654 387.964 106.606Z" fill="black"/>
<path d="M430.509 138.559V135.751C435.322 135.751 438.129 134.86 438.931 133.077V87.8898C433.406 87.4441 430.598 87.2213 430.509 87.2213V84.1464C432.202 84.1464 435.5 83.2106 440.402 81.3389C445.393 79.3781 448.914 78.3977 450.964 78.3977L450.628 89.7326C455.351 82.1237 460.861 77.4009 465.321 77.1385C469.257 76.6138 471.568 77.7224 474.242 79.2375C477.005 80.7527 478.37 83.8791 478.37 85.7507C478.37 88.9593 476.588 90.5636 473.023 90.5636C471.151 90.5636 469.458 89.3158 467.942 86.8203C466.427 84.2356 464.689 82.9432 462.728 82.9432C459.252 82.9432 454.302 86.8317 450.964 94.4406V133.077C451.766 134.86 454.573 135.751 459.386 135.751V138.559H430.509Z" fill="black"/>
<path d="M475.233 131.607C475.233 129.022 476.124 126.972 477.907 125.457C479.778 123.853 481.917 123.05 484.324 123.05C486.463 123.05 488.557 123.808 490.607 125.323C492.657 126.749 493.682 128.71 493.682 131.206C493.682 133.79 492.746 135.885 490.875 137.489C489.003 139.093 486.864 139.895 484.457 139.895C482.318 139.895 480.224 139.138 478.174 137.623C476.213 136.108 475.233 134.102 475.233 131.607Z" fill="black"/>
<path d="M505.943 137.832V135.02C510.762 135.02 513.574 134.127 514.377 132.342V87.0881C508.843 86.6418 506.032 86.4186 505.943 86.4186V83.3392C507.638 83.3392 510.941 82.402 515.85 80.5276C520.849 78.5639 524.374 77.582 526.427 77.582V132.342C527.231 134.127 530.042 135.02 534.862 135.02V137.832H505.943ZM520.001 69.0132C518.037 69.0132 516.297 68.2991 514.779 66.871C513.351 65.3536 512.637 63.4345 512.637 61.1138C512.637 59.0609 513.262 57.2757 514.511 55.7583C515.85 54.2409 517.546 53.4822 519.599 53.4822C521.563 53.4822 523.303 54.2409 524.821 55.7583C526.338 57.2757 527.097 59.1947 527.097 61.5155C527.097 63.5684 526.427 65.3536 525.089 66.871C523.75 68.2991 522.054 69.0132 520.001 69.0132ZM576.193 80.2598V62.9882C576.193 62.9882 573.381 62.7651 567.758 62.3188V59.2394C569.454 59.2394 572.756 58.3022 577.666 56.4277C582.664 54.464 586.19 53.4822 588.243 53.4822V129.664L596.678 130.334V133.413C594.982 133.413 591.635 134.395 586.636 136.359C581.727 138.233 578.246 139.171 576.193 139.171V134.752C571.909 137.698 566.553 139.171 560.126 139.171C557.181 139.171 554.235 138.68 551.29 137.698C548.434 136.627 545.533 135.02 542.587 132.878C539.731 130.646 537.365 127.388 535.491 123.104C533.706 118.82 532.813 113.821 532.813 108.109C532.813 98.1115 535.58 90.4353 541.114 85.0798C546.738 79.7242 554.057 77.0465 563.072 77.0465C568.16 77.0465 572.533 78.1176 576.193 80.2598ZM576.193 84.4103C572.98 82.5359 568.874 81.5987 563.875 81.5987C558.966 81.5987 554.682 83.964 551.022 88.6947C547.362 93.4255 545.533 99.8967 545.533 108.109C545.533 113.553 547.095 119.355 550.219 125.514C553.432 131.584 557.181 134.618 561.465 134.618C567.356 134.618 572.266 133.19 576.193 130.334V84.4103Z" fill="black"/>
</svg>
